<svg id="eF8kXLblu1w1" xmlns="http://www.w3.org/2000/svg" xmlns:xlink="http://www.w3.org/1999/xlink" viewBox="0 0 50 38" shape-rendering="geometricPrecision" text-rendering="geometricPrecision"><g><g transform="translate(0-1.39326)"><path d="M0,20.0292h3.94012v-5.2959l1.93821-2.3659l5.10487,7.6618h4.7136L8.6992,9.73758l6.9157-8.34432h-4.7227L4.18581,9.61019h-.24569v-8.21693h-3.94012v18.63594Z" fill="#ff577f"/><path d="M49.2875,20.0292h11.7476v-3.0939h-6.6609v-.1l6.4243-8.26247v-2.52058h-11.2744v3.09386h6.6063v.10009l-6.8429,8.4717v2.3113Z" transform="translate(-30-.111367)" fill="#ff577f"/></g><g transform="translate(-94.3489 17.743299)"><path d="M94.3489,20.0292h3.9401v-7.6982h7.999v7.6982h3.931v-18.63594h-3.931v7.68915h-7.999v-7.68915h-3.9401v18.63594Z" fill="#ff577f"/><path d="M122.87,14.0781c.009,1.8745-1.274,2.8572-2.666,2.8572-1.465,0-2.412-1.0282-2.421-2.6752v-8.20785h-3.876v8.89935c.009,3.2668,1.92,5.2596,4.732,5.2596c2.102,0,3.612-1.0829,4.24-2.7208h.146v2.5388h3.721v-13.97695h-3.876v8.02585Z" fill="#ff577f"/><path d="M130.432,20.0292h3.822v-2.2385h.173c.537,1.1648,1.711,2.466,3.967,2.466c3.185,0,5.669-2.5206,5.669-7.1978c0-4.80455-2.593-7.18864-5.659-7.18864-2.339,0-3.458,1.39224-3.977,2.52968h-.118v-7.00668h-3.877v18.63594Zm3.795-6.9885c0-2.4933,1.055-4.08568,2.939-4.08568c1.92,0,2.939,1.66518,2.939,4.08568c0,2.4387-1.037,4.1312-2.939,4.1312-1.865,0-2.939-1.6379-2.939-4.1312Z" fill="#ff577f"/></g></g></svg>
